<svg xmlns="http://www.w3.org/2000/svg" width="800" height="600"><style>
              .boundary { fill: #000; }
              .pcb-board { fill: none; }
              .pcb-trace { fill: none; }
              .pcb-hole-outer { fill: rgb(200, 52, 52); }
              .pcb-hole-inner { fill: rgb(255, 38, 226); }
              .pcb-pad { }
              .pcb-boundary { fill: none; stroke: #fff; stroke-width: 0.3; }
              .pcb-silkscreen { fill: none; }
              .pcb-silkscreen-top { stroke: #f2eda1; }
              .pcb-silkscreen-bottom { stroke: #f2eda1; }
              .pcb-silkscreen-text { fill: #f2eda1; }
            </style><rect class="boundary" x="0" y="0" width="800" height="600"/><rect class="pcb-boundary" x="100" y="50" width="600" height="500"/><path class="pcb-board" d="M 100 550 L 700 550 L 700 50 L 100 50 Z" stroke="rgba(255, 255, 255, 0.5)" stroke-width="5"/><g transform="translate(400, 300) rotate(0) scale(1, -1)"><rect class="pcb-component" x="-132.5" y="-110.25" width="265" height="220.5"/><rect class="pcb-component-outline" x="-132.5" y="-110.25" width="265" height="220.5"/></g><g transform="translate(200, 300) rotate(90) scale(1, -1)"><rect class="pcb-component" x="-13.49999999999999" y="-41.5" width="26.99999999999998" height="83"/><rect class="pcb-component-outline" x="-13.49999999999999" y="-41.5" width="26.99999999999998" height="83"/></g><g transform="translate(600, 300) rotate(90) scale(1, -1)"><rect class="pcb-component" x="-20.000000000000007" y="-64.99999999999999" width="40.000000000000014" height="129.99999999999997"/><rect class="pcb-component-outline" x="-20.000000000000007" y="-64.99999999999999" width="40.000000000000014" height="129.99999999999997"/></g><g transform="translate(400, 500) rotate(0) scale(1, -1)"><rect class="pcb-component" x="-228.00000000000003" y="-37.5" width="456.00000000000006" height="75"/><rect class="pcb-component-outline" x="-228.00000000000003" y="-37.5" width="456.00000000000006" height="75"/></g><rect class="pcb-pad" fill="rgb(200, 52, 52)" x="267.5" y="189.75" width="50" height="30"/><rect class="pcb-pad" fill="rgb(200, 52, 52)" x="267.5" y="253.25" width="50" height="30"/><rect class="pcb-pad" fill="rgb(200, 52, 52)" x="267.5" y="316.75" width="50" height="30"/><rect class="pcb-pad" fill="rgb(200, 52, 52)" x="267.5" y="380.25" width="50" height="30"/><rect class="pcb-pad" fill="rgb(200, 52, 52)" x="482.5" y="380.25" width="50" height="30"/><rect class="pcb-pad" fill="rgb(200, 52, 52)" x="482.5" y="316.75" width="50" height="30"/><rect class="pcb-pad" fill="rgb(200, 52, 52)" x="482.5" y="253.25" width="50" height="30"/><rect class="pcb-pad" fill="rgb(200, 52, 52)" x="482.5" y="189.75" width="50" height="30"/><rect class="pcb-pad" fill="rgb(200, 52, 52)" x="184" y="261" width="32" height="27"/><rect class="pcb-pad" fill="rgb(200, 52, 52)" x="184" y="312" width="32" height="27"/><rect class="pcb-pad" fill="rgb(200, 52, 52)" x="576.25" y="238.75" width="47.5" height="40"/><rect class="pcb-pad" fill="rgb(200, 52, 52)" x="576.25" y="321.25" width="47.5" height="40"/><path class="pcb-trace" stroke="rgb(200, 52, 52)" d="M 200 274.5 L 292.5 274.5" stroke-width="8" stroke-linecap="round" stroke-linejoin="round" shape-rendering="crispEdges"/><path class="pcb-trace" stroke="rgb(200, 52, 52)" d="M 200 325.5 L 217.5 325.5" stroke-width="8" stroke-linecap="round" stroke-linejoin="round" shape-rendering="crispEdges"/><path class="pcb-trace" stroke="rgb(200, 52, 52)" d="M 217.5 325.5 L 217.5 396.75" stroke-width="8" stroke-linecap="round" stroke-linejoin="round" shape-rendering="crispEdges"/><path class="pcb-trace" stroke="rgb(200, 52, 52)" d="M 217.5 396.75 L 217.5 396.75" stroke-width="8" stroke-linecap="round" stroke-linejoin="round" shape-rendering="crispEdges"/><path class="pcb-trace" stroke="rgb(77, 127, 196)" d="M 217.5 396.75 L 217.5 396.75" stroke-width="8" stroke-linecap="round" stroke-linejoin="round" shape-rendering="crispEdges"/><path class="pcb-trace" stroke="rgb(77, 127, 196)" d="M 217.5 396.75 L 217.5 204.75" stroke-width="8" stroke-linecap="round" stroke-linejoin="round" shape-rendering="crispEdges"/><path class="pcb-trace" stroke="rgb(77, 127, 196)" d="M 217.5 204.75 L 217.5 204.75" stroke-width="8" stroke-linecap="round" stroke-linejoin="round" shape-rendering="crispEdges"/><path class="pcb-trace" stroke="rgb(200, 52, 52)" d="M 217.5 204.75 L 217.5 204.75" stroke-width="8" stroke-linecap="round" stroke-linejoin="round" shape-rendering="crispEdges"/><path class="pcb-trace" stroke="rgb(200, 52, 52)" d="M 217.5 204.75 L 292.5 204.75" stroke-width="8" stroke-linecap="round" stroke-linejoin="round" shape-rendering="crispEdges"/><path class="pcb-trace" stroke="rgb(200, 52, 52)" d="M 600 258.75 L 600 150" stroke-width="8" stroke-linecap="round" stroke-linejoin="round" shape-rendering="crispEdges"/><path class="pcb-trace" stroke="rgb(200, 52, 52)" d="M 600 150 L 300 150" stroke-width="8" stroke-linecap="round" stroke-linejoin="round" shape-rendering="crispEdges"/><path class="pcb-trace" stroke="rgb(200, 52, 52)" d="M 300 150 L 300 150" stroke-width="8" stroke-linecap="round" stroke-linejoin="round" shape-rendering="crispEdges"/><path class="pcb-trace" stroke="rgb(200, 52, 52)" d="M 300 150 L 300 204.75" stroke-width="8" stroke-linecap="round" stroke-linejoin="round" shape-rendering="crispEdges"/><path class="pcb-trace" stroke="rgb(200, 52, 52)" d="M 600 341.25 L 600 500" stroke-width="8" stroke-linecap="round" stroke-linejoin="round" shape-rendering="crispEdges"/><path class="pcb-trace" stroke="rgb(200, 52, 52)" d="M 507.5 204.75 L 367.5 204.75" stroke-width="8" stroke-linecap="round" stroke-linejoin="round" shape-rendering="crispEdges"/><path class="pcb-trace" stroke="rgb(200, 52, 52)" d="M 367.5 204.75 L 367.5 341.25" stroke-width="8" stroke-linecap="round" stroke-linejoin="round" shape-rendering="crispEdges"/><path class="pcb-trace" stroke="rgb(200, 52, 52)" d="M 367.5 341.25 L 432.5 341.25" stroke-width="8" stroke-linecap="round" stroke-linejoin="round" shape-rendering="crispEdges"/><path class="pcb-trace" stroke="rgb(200, 52, 52)" d="M 432.5 341.25 L 432.5 362.75" stroke-width="8" stroke-linecap="round" stroke-linejoin="round" shape-rendering="crispEdges"/><path class="pcb-trace" stroke="rgb(200, 52, 52)" d="M 432.5 362.75 L 600 362.75" stroke-width="8" stroke-linecap="round" stroke-linejoin="round" shape-rendering="crispEdges"/><path class="pcb-trace" stroke="rgb(200, 52, 52)" d="M 600 362.75 L 600 341.25" stroke-width="8" stroke-linecap="round" stroke-linejoin="round" shape-rendering="crispEdges"/><path class="pcb-trace" stroke="rgb(200, 52, 52)" d="M 209.5 500 L 249 500" stroke-width="8" stroke-linecap="round" stroke-linejoin="round" shape-rendering="crispEdges"/><path class="pcb-trace" stroke="rgb(200, 52, 52)" d="M 249 500 L 249 325.5" stroke-width="8" stroke-linecap="round" stroke-linejoin="round" shape-rendering="crispEdges"/><path class="pcb-trace" stroke="rgb(200, 52, 52)" d="M 249 325.5 L 200 325.5" stroke-width="8" stroke-linecap="round" stroke-linejoin="round" shape-rendering="crispEdges"/><path class="pcb-trace" stroke="rgb(200, 52, 52)" d="M 336.5 500 L 336.5 268.25" stroke-width="8" stroke-linecap="round" stroke-linejoin="round" shape-rendering="crispEdges"/><path class="pcb-trace" stroke="rgb(200, 52, 52)" d="M 336.5 268.25 L 292.5 268.25" stroke-width="8" stroke-linecap="round" stroke-linejoin="round" shape-rendering="crispEdges"/><g><circle class="pcb-hole-outer" cx="217.5" cy="396.75" r="15"/><circle class="pcb-hole-inner" cx="217.5" cy="396.75" r="7.5"/></g><g><circle class="pcb-hole-outer" cx="217.5" cy="204.75" r="15"/><circle class="pcb-hole-inner" cx="217.5" cy="204.75" r="7.5"/></g><path class="pcb-silkscreen pcb-silkscreen-top" d="M 322.5 426.125 L 322.5 173.875 L 374.1666666666667 173.875 L 376.13311207679175 183.7609886694315 L 381.7330748193475 192.1419251806525 L 390.11401133056853 197.74188792320825 L 400 199.70833333333331 L 409.88598866943147 197.74188792320825 L 418.2669251806525 192.1419251806525 L 423.86688792320825 183.7609886694315 L 425.8333333333333 173.875 L 477.5 173.875 L 477.5 426.125 L 322.5 426.125 Z" stroke-width="5" data-pcb-component-id="pcb_component_0" data-pcb-silkscreen-path-id="pcb_silkscreen_path_0"/><path class="pcb-silkscreen pcb-silkscreen-top" d="M 236 325.5 L 236 251 L 164 251 L 164 325.5" stroke-width="5" data-pcb-component-id="pcb_component_1" data-pcb-silkscreen-path-id="pcb_silkscreen_path_1"/><path class="pcb-silkscreen pcb-silkscreen-top" d="M 643.75 341.25 L 643.75 228.75 L 556.25 228.75 L 556.25 341.25" stroke-width="5" data-pcb-component-id="pcb_component_2" data-pcb-silkscreen-path-id="pcb_silkscreen_path_2"/><g><circle class="pcb-hole-outer" cx="209.5" cy="500" r="37.5"/><circle class="pcb-hole-inner" cx="209.5" cy="500" r="25"/></g><g><circle class="pcb-hole-outer" cx="336.5" cy="500" r="37.5"/><circle class="pcb-hole-inner" cx="336.5" cy="500" r="25"/></g><g><circle class="pcb-hole-outer" cx="463.5" cy="500" r="37.5"/><circle class="pcb-hole-inner" cx="463.5" cy="500" r="25"/></g><g><circle class="pcb-hole-outer" cx="590.5" cy="500" r="37.5"/><circle class="pcb-hole-inner" cx="590.5" cy="500" r="25"/></g></svg>